<?xml version="1.0" standalone="no"?>
<!DOCTYPE svg PUBLIC "-//W3C//DTD SVG 1.1//EN" "http://www.w3.org/Graphics/SVG/1.1/DTD/svg11.dtd">
<svg width="100%" height="100%" viewBox="0 0 20 24" version="1.1" xmlns="http://www.w3.org/2000/svg" xmlns:xlink="http://www.w3.org/1999/xlink" xml:space="preserve" style="fill-rule:evenodd;clip-rule:evenodd;stroke-linejoin:round;stroke-miterlimit:1.41421;">
    <g transform="matrix(1,0,0,1,-377.375,-4384.83)">
        <path id="fa-apple" d="M396.803,4401.77C395.98,4401.52 395.241,4400.94 394.599,4400.02C393.957,4399.1 393.637,4398.05 393.637,4396.91C393.637,4395.85 393.944,4394.88 394.543,4394.02C394.878,4393.53 395.408,4392.99 396.133,4392.37C395.659,4391.79 395.171,4391.31 394.683,4390.98C393.818,4390.38 392.828,4390.07 391.712,4390.07C391.029,4390.07 390.22,4390.24 389.299,4390.55C388.379,4390.87 387.709,4391.02 387.305,4391.02C386.984,4391.02 386.343,4390.88 385.38,4390.6C384.404,4390.32 383.595,4390.18 382.912,4390.18C381.308,4390.18 379.997,4390.85 378.951,4392.19C377.905,4393.55 377.375,4395.27 377.375,4397.41C377.375,4399.69 378.072,4402.02 379.425,4404.42C380.806,4406.82 382.187,4408.03 383.623,4408.03C384.083,4408.03 384.697,4407.88 385.464,4407.56C386.217,4407.25 386.887,4407.1 387.444,4407.1C388.016,4407.1 388.728,4407.24 389.55,4407.55C390.387,4407.84 391.029,4407.99 391.503,4407.99C392.688,4407.99 393.888,4407.09 395.087,4405.26C395.896,4404.05 396.454,4402.88 396.803,4401.77ZM391.559,4385.41C391.559,4385.32 391.545,4385.23 391.545,4385.14C391.531,4385.05 391.503,4384.95 391.475,4384.83C389.857,4385.2 388.686,4385.89 387.988,4386.89C387.291,4387.9 386.928,4389.1 386.9,4390.48C387.556,4390.42 388.03,4390.34 388.351,4390.24C388.853,4390.07 389.355,4389.74 389.857,4389.23C390.443,4388.65 390.875,4388.01 391.154,4387.31C391.419,4386.63 391.559,4385.99 391.559,4385.41Z" style="fill:rgb(197,197,197);fill-rule:nonzero;"/>
    </g>
</svg>
