<?xml version="1.0" standalone="no"?>
<!DOCTYPE svg PUBLIC "-//W3C//DTD SVG 1.1//EN" "http://www.w3.org/Graphics/SVG/1.1/DTD/svg11.dtd">
<svg width="100%" height="100%" viewBox="0 0 42 42" version="1.1" xmlns="http://www.w3.org/2000/svg" xmlns:xlink="http://www.w3.org/1999/xlink" xml:space="preserve" style="fill-rule:evenodd;clip-rule:evenodd;stroke-linejoin:round;stroke-miterlimit:1.41421;">
    <g transform="matrix(1,0,0,1,-315.999,-55.9991)">
        <path id="Shape 5" d="M336.5,55.999C325.196,55.999 315.999,65.196 315.999,76.5C315.999,87.804 325.196,97.001 336.5,97.001C347.804,97.001 357.001,87.804 357.001,76.5C357.001,65.196 347.804,55.999 336.5,55.999ZM336.5,93.834C326.942,93.834 319.166,86.058 319.166,76.5C319.166,66.942 326.942,59.166 336.5,59.166C346.058,59.166 353.834,66.942 353.834,76.5C353.834,86.058 346.058,93.834 336.5,93.834ZM336.5,68.611C332.15,68.611 328.611,72.15 328.611,76.5C328.611,80.85 332.15,84.389 336.5,84.389C340.85,84.389 344.389,80.85 344.389,76.5C344.389,72.15 340.85,68.611 336.5,68.611ZM336.5,81.222C333.896,81.222 331.777,79.104 331.777,76.5C331.777,73.896 333.896,71.778 336.5,71.778C339.104,71.778 341.222,73.896 341.222,76.5C341.222,79.104 339.104,81.222 336.5,81.222Z" style="fill:white;"/>
    </g>
</svg>
